<svg width="135" height="41" viewBox="0 0 135 41" fill="none" xmlns="http://www.w3.org/2000/svg">
<g clip-path="url(#clip0_104_329)">
<path d="M130 0.5H5C2.23858 0.5 0 2.73858 0 5.5V35.5C0 38.2614 2.23858 40.5 5 40.5H130C132.761 40.5 135 38.2614 135 35.5V5.5C135 2.73858 132.761 0.5 130 0.5Z" fill="black"/>
<path d="M130 1.30004C131.114 1.30133 132.181 1.74427 132.968 2.53169C133.756 3.31911 134.199 4.3867 134.2 5.50024V35.5002C134.199 36.6138 133.756 37.6814 132.968 38.4688C132.181 39.2562 131.114 39.6991 130 39.7004H5C3.88645 39.6992 2.81888 39.2562 2.0315 38.4688C1.24412 37.6814 0.801231 36.6138 0.8 35.5002V5.50024C0.801212 4.38669 1.24409 3.31909 2.03148 2.53166C2.81886 1.74424 3.88644 1.30131 5 1.30004H130ZM130 0.500244H5C3.67511 0.504122 2.40559 1.03215 1.46875 1.96899C0.531908 2.90584 0.0038781 4.17535 0 5.50024L0 35.5002C0.0038781 36.8251 0.531908 38.0947 1.46875 39.0315C2.40559 39.9683 3.67511 40.4964 5 40.5002H130C131.325 40.4964 132.594 39.9683 133.531 39.0315C134.468 38.0947 134.996 36.8251 135 35.5002V5.50024C134.996 4.17535 134.468 2.90584 133.531 1.96899C132.594 1.03215 131.325 0.504122 130 0.500244Z" fill="#A6A6A6"/>
<path d="M47.4184 10.7433C47.4366 11.1103 47.3799 11.4771 47.2518 11.8214C47.1237 12.1658 46.9268 12.4804 46.6732 12.7462C46.389 13.041 46.0457 13.2724 45.6659 13.4254C45.2861 13.5784 44.8783 13.6494 44.4691 13.6339C44.0573 13.6376 43.649 13.559 43.268 13.4026C42.8871 13.2462 42.5412 13.0152 42.2508 12.7233C41.9604 12.4313 41.7313 12.0842 41.5769 11.7024C41.4226 11.3207 41.3461 10.9119 41.352 10.5001C41.3462 10.0884 41.4227 9.67959 41.577 9.29781C41.7314 8.91603 41.9605 8.56895 42.2509 8.27695C42.5413 7.98496 42.8871 7.75395 43.268 7.59748C43.649 7.44102 44.0573 7.36226 44.4691 7.36584C44.8925 7.36456 45.3116 7.45016 45.7006 7.61734C46.0619 7.76378 46.3834 7.99348 46.6391 8.28774L46.1117 8.81554C45.9107 8.57899 45.6581 8.39178 45.3733 8.26834C45.0885 8.14491 44.7791 8.08856 44.4691 8.10364C44.157 8.10202 43.8478 8.16341 43.56 8.28412C43.2722 8.40483 43.0118 8.58239 42.7942 8.80615C42.5767 9.02991 42.4065 9.29527 42.2939 9.58635C42.1814 9.87743 42.1287 10.1882 42.1391 10.5001C42.1317 10.9673 42.2631 11.4262 42.5168 11.8186C42.7705 12.211 43.135 12.5192 43.5641 12.7041C43.9932 12.8891 44.4676 12.9425 44.927 12.8575C45.3865 12.7725 45.8104 12.5529 46.1449 12.2267C46.4528 11.895 46.6313 11.4637 46.6478 11.0113H44.4691V10.2906H47.3764C47.4039 10.44 47.4179 10.5915 47.4184 10.7433Z" fill="white" stroke="white" stroke-width="0.2" stroke-miterlimit="10"/>
<path d="M52.0277 8.2373H49.2953V10.1396H51.7592V10.8604H49.2953V12.7627H52.0277V13.5H48.5248V7.5H52.0277V8.2373Z" fill="white" stroke="white" stroke-width="0.2" stroke-miterlimit="10"/>
<path d="M55.2787 13.5H54.5072V8.2373H52.8314V7.5H56.9545V8.2373H55.2787V13.5Z" fill="white" stroke="white" stroke-width="0.2" stroke-miterlimit="10"/>
<path d="M59.9379 13.5V7.5H60.7084V13.5H59.9379Z" fill="white" stroke="white" stroke-width="0.2" stroke-miterlimit="10"/>
<path d="M64.1283 13.5H63.3568V8.2373H61.6811V7.5H65.8041V8.2373H64.1283V13.5Z" fill="white" stroke="white" stroke-width="0.2" stroke-miterlimit="10"/>
<path d="M73.6093 12.7246C73.0253 13.3069 72.2343 13.6338 71.4096 13.6338C70.5849 13.6338 69.7939 13.3069 69.2099 12.7246C68.921 12.432 68.6939 12.0843 68.542 11.7021C68.3902 11.3199 68.3168 10.9111 68.3261 10.5C68.3168 10.0889 68.3902 9.68011 68.542 9.29795C68.6939 8.91578 68.921 8.56805 69.2099 8.27542C69.4986 7.98669 69.8413 7.75772 70.2186 7.60162C70.5958 7.44552 71.0002 7.36536 71.4085 7.36572C71.8167 7.36609 72.2209 7.44697 72.5979 7.60373C72.9749 7.7605 73.3173 7.99008 73.6054 8.27932C73.8945 8.57118 74.1221 8.91814 74.2746 9.29961C74.4271 9.68107 74.5014 10.0893 74.4931 10.5C74.5022 10.9111 74.4286 11.3198 74.2768 11.702C74.125 12.0841 73.898 12.4318 73.6093 12.7246ZM69.7792 12.2222C70.2117 12.654 70.7979 12.8965 71.4091 12.8965C72.0203 12.8965 72.6065 12.654 73.039 12.2222C73.2608 11.9951 73.4343 11.7255 73.5489 11.4294C73.6635 11.1334 73.717 10.8173 73.706 10.5C73.717 10.1828 73.6635 9.86661 73.5489 9.5706C73.4343 9.2746 73.2608 9.0049 73.039 8.77782C72.6065 8.34603 72.0203 8.10351 71.4091 8.10351C70.7979 8.10351 70.2117 8.34603 69.7792 8.77782C69.5577 9.00508 69.3845 9.27483 69.2701 9.57081C69.1556 9.86679 69.1022 10.1829 69.1132 10.5C69.1022 10.8172 69.1556 11.1333 69.2701 11.4292C69.3845 11.7252 69.5577 11.995 69.7792 12.2222Z" fill="white" stroke="white" stroke-width="0.2" stroke-miterlimit="10"/>
<path d="M75.5751 13.5V7.5H76.5136L79.4296 12.1675H79.4628L79.4296 11.0112V7.5H80.2011V13.5H79.3964L76.3456 8.6064H76.3124L76.3456 9.7627V13.5H75.5751Z" fill="white" stroke="white" stroke-width="0.2" stroke-miterlimit="10"/>
<path d="M68.1358 22.2517C67.2953 22.2549 66.4746 22.507 65.7773 22.9763C65.08 23.4456 64.5373 24.111 64.2179 24.8884C63.8984 25.6659 63.8165 26.5205 63.9825 27.3445C64.1484 28.1685 64.5547 28.9248 65.1502 29.518C65.7457 30.1112 66.5035 30.5147 67.3281 30.6775C68.1527 30.8403 69.0071 30.7551 69.7833 30.4327C70.5595 30.1103 71.2228 29.5652 71.6895 28.8661C72.1561 28.167 72.4051 27.3453 72.4051 26.5048C72.4134 25.9426 72.3085 25.3845 72.0966 24.8637C71.8848 24.3429 71.5704 23.87 71.1721 23.4732C70.7737 23.0764 70.2997 22.7638 69.7781 22.5539C69.2564 22.3441 68.698 22.2413 68.1358 22.2517ZM68.1358 29.0825C67.6182 29.1194 67.1014 28.9996 66.6528 28.7387C66.2043 28.4778 65.8446 28.0879 65.6207 27.6198C65.3968 27.1516 65.3191 26.6269 65.3976 26.1139C65.4761 25.601 65.7072 25.1235 66.0608 24.7438C66.4145 24.364 66.8743 24.0995 67.3804 23.9847C67.8865 23.8699 68.4154 23.9101 68.8983 24.1001C69.3812 24.2902 69.7957 24.6212 70.0878 25.0501C70.3799 25.479 70.5362 25.9859 70.5362 26.5048C70.5519 26.8326 70.5019 27.1603 70.389 27.4685C70.2762 27.7767 70.1028 28.0593 69.8792 28.2994C69.6555 28.5396 69.386 28.7327 69.0866 28.8671C68.7872 29.0016 68.4639 29.0749 68.1358 29.0825ZM58.8224 22.2517C57.9819 22.2549 57.1612 22.507 56.4638 22.9763C55.7665 23.4455 55.2239 24.1109 54.9044 24.8884C54.585 25.6658 54.503 26.5205 54.6689 27.3444C54.8349 28.1684 55.2412 28.9248 55.8367 29.518C56.4321 30.1112 57.19 30.5147 58.0146 30.6775C58.8392 30.8403 59.6936 30.7551 60.4698 30.4327C61.246 30.1103 61.9093 29.5652 62.376 28.8661C62.8426 28.167 63.0916 27.3453 63.0916 26.5048C63.0999 25.9426 62.995 25.3845 62.7831 24.8637C62.5713 24.3429 62.2569 23.8701 61.8586 23.4733C61.4603 23.0765 60.9862 22.7638 60.4646 22.554C59.943 22.3441 59.3845 22.2413 58.8224 22.2517ZM58.8224 29.0825C58.3048 29.1194 57.788 28.9996 57.3394 28.7387C56.8909 28.4778 56.5312 28.0879 56.3073 27.6198C56.0834 27.1516 56.0057 26.6269 56.0842 26.1139C56.1627 25.601 56.3938 25.1235 56.7474 24.7438C57.1011 24.364 57.5609 24.0995 58.067 23.9847C58.573 23.8699 59.102 23.9101 59.5849 24.1001C60.0678 24.2902 60.4823 24.6212 60.7744 25.0501C61.0665 25.479 61.2228 25.9859 61.2228 26.5048C61.2385 26.8326 61.1885 27.1603 61.0757 27.4685C60.9628 27.7767 60.7895 28.0593 60.5658 28.2995C60.3421 28.5397 60.0726 28.7327 59.7732 28.8672C59.4738 29.0016 59.1505 29.0749 58.8224 29.0825ZM47.7436 23.5567V25.361H52.0613C51.999 26.2073 51.6527 27.0078 51.0785 27.6326C50.6458 28.0736 50.1255 28.4191 49.5511 28.6466C48.9767 28.8741 48.3609 28.9787 47.7436 28.9536C46.4816 28.9365 45.277 28.4232 44.3906 27.5247C43.5042 26.6262 43.0073 25.4148 43.0073 24.1527C43.0073 22.8906 43.5042 21.6792 44.3906 20.7807C45.277 19.8822 46.4816 19.3689 47.7436 19.3518C48.9558 19.336 50.1253 19.7991 50.998 20.6406L52.2707 19.3679C51.6753 18.7784 50.9681 18.3137 50.1907 18.0011C49.4134 17.6885 48.5814 17.5343 47.7436 17.5474C46.8681 17.5347 45.9988 17.6961 45.1862 18.0223C44.3737 18.3485 43.6341 18.8331 43.0104 19.4477C42.3868 20.0623 41.8916 20.7948 41.5535 21.6025C41.2155 22.4102 41.0414 23.2771 41.0414 24.1527C41.0414 25.0283 41.2155 25.8952 41.5535 26.7029C41.8916 27.5106 42.3868 28.2431 43.0104 28.8577C43.6341 29.4724 44.3737 29.9569 45.1862 30.2831C45.9988 30.6093 46.8681 30.7708 47.7436 30.758C48.5991 30.7935 49.4523 30.6466 50.2467 30.3272C51.0411 30.0078 51.7584 29.5231 52.3512 28.9053C53.4036 27.7566 53.9646 26.2415 53.914 24.6844C53.9181 24.3063 53.8857 23.9286 53.8172 23.5567H47.7436ZM93.0519 24.9582C92.7963 24.1878 92.3097 23.5148 91.6583 23.0306C91.0069 22.5464 90.2223 22.2744 89.4109 22.2517C88.8644 22.2551 88.3243 22.3693 87.8232 22.5873C87.3222 22.8053 86.8705 23.1227 86.4955 23.5203C86.1206 23.9178 85.8301 24.3873 85.6417 24.9002C85.4534 25.4132 85.371 25.9591 85.3995 26.5048C85.3872 27.064 85.4877 27.6199 85.6951 28.1394C85.9024 28.6588 86.2123 29.1312 86.6063 29.5282C87.0003 29.9252 87.4703 30.2387 87.9881 30.45C88.506 30.6613 89.0611 30.7661 89.6204 30.758C90.3211 30.7619 91.0117 30.5917 91.6303 30.2627C92.2489 29.9337 92.7761 29.4562 93.1646 28.8731L91.7147 27.9065C91.4975 28.2672 91.1902 28.5653 90.8231 28.7715C90.4559 28.9776 90.0415 29.0848 89.6204 29.0825C89.1871 29.0991 88.7588 28.9851 88.3911 28.7553C88.0234 28.5254 87.7332 28.1904 87.5582 27.7937L93.2453 25.4416L93.0519 24.9582ZM87.2522 26.376C87.2322 26.0664 87.2741 25.756 87.3755 25.4628C87.4769 25.1697 87.6357 24.8997 87.8428 24.6687C88.0498 24.4376 88.3008 24.2502 88.5811 24.1174C88.8614 23.9845 89.1654 23.9089 89.4753 23.895C89.798 23.8738 90.1198 23.948 90.4006 24.1084C90.6813 24.2689 90.9087 24.5084 91.0542 24.7972L87.2522 26.376ZM82.6284 30.5002H84.4972V17.9986H82.6284V30.5002ZM79.5674 23.2022H79.503C79.2189 22.8935 78.8721 22.649 78.486 22.4851C78.0998 22.3212 77.683 22.2416 77.2636 22.2517C76.1669 22.2984 75.1306 22.7669 74.3711 23.5594C73.6116 24.3519 73.1876 25.4072 73.1876 26.5049C73.1876 27.6025 73.6116 28.6578 74.3711 29.4503C75.1306 30.2428 76.1669 30.7113 77.2636 30.758C77.6847 30.7692 78.1031 30.6885 78.4899 30.5216C78.8766 30.3547 79.2223 30.1055 79.503 29.7914H79.5674V30.4036C79.5674 32.0308 78.6975 32.9007 77.2958 32.9007C76.8287 32.8895 76.3754 32.7395 75.9939 32.4698C75.6123 32.2001 75.3196 31.8229 75.1532 31.3863L73.526 32.063C73.8327 32.8097 74.3553 33.4478 75.027 33.8955C75.6986 34.3433 76.4886 34.5803 77.2958 34.5762C79.4869 34.5762 81.3396 33.2874 81.3396 30.1458V22.5094H79.5674V23.2022ZM77.4248 29.0825C76.7789 29.0277 76.177 28.7324 75.7384 28.2551C75.2999 27.7777 75.0565 27.1531 75.0565 26.5049C75.0565 25.8566 75.2999 25.232 75.7384 24.7546C76.177 24.2773 76.7789 23.982 77.4248 23.9272C77.7462 23.9429 78.0611 24.0231 78.3508 24.1631C78.6404 24.3031 78.899 24.5 79.111 24.742C79.3229 24.9841 79.484 25.2663 79.5846 25.5719C79.6851 25.8776 79.7231 26.2003 79.6963 26.5209C79.7214 26.8395 79.682 27.16 79.5805 27.463C79.4789 27.7661 79.3173 28.0455 79.1052 28.2847C78.8931 28.5238 78.635 28.7177 78.3463 28.8548C78.0576 28.9919 77.7442 29.0693 77.4248 29.0825ZM101.806 17.9988H97.3346V30.5002H99.2003V25.7638H101.806C102.334 25.7927 102.862 25.7138 103.358 25.5317C103.854 25.3497 104.308 25.0684 104.692 24.705C105.076 24.3417 105.381 23.9038 105.59 23.4184C105.799 22.9329 105.907 22.4099 105.907 21.8813C105.907 21.3528 105.799 20.8298 105.59 20.3443C105.381 19.8588 105.076 19.421 104.692 19.0576C104.308 18.6942 103.854 18.4129 103.358 18.2309C102.862 18.0488 102.334 17.9699 101.806 17.9988ZM101.854 24.024H99.2003V19.7387H101.854C102.139 19.7328 102.423 19.7839 102.688 19.8889C102.953 19.9939 103.194 20.1508 103.398 20.3503C103.602 20.5499 103.764 20.7881 103.874 21.051C103.985 21.3139 104.042 21.5962 104.042 21.8814C104.042 22.1665 103.985 22.4488 103.874 22.7117C103.764 22.9746 103.602 23.2128 103.398 23.4124C103.194 23.6119 102.953 23.7688 102.688 23.8738C102.423 23.9789 102.139 24.0299 101.854 24.024ZM113.386 22.2287C112.705 22.1889 112.027 22.3489 111.435 22.6889C110.844 23.0288 110.365 23.5341 110.056 24.1426L111.713 24.8342C111.877 24.5322 112.126 24.2846 112.429 24.1218C112.732 23.9589 113.075 23.8879 113.418 23.9174C113.891 23.8712 114.363 24.0145 114.731 24.316C115.099 24.6175 115.332 25.0525 115.38 25.5257V25.6544C114.781 25.3361 114.112 25.1704 113.434 25.1719C111.649 25.1719 109.831 26.153 109.831 27.9865C109.849 28.3729 109.943 28.7519 110.11 29.101C110.277 29.4501 110.512 29.7621 110.801 30.0186C111.091 30.2751 111.429 30.4709 111.795 30.5942C112.162 30.7176 112.55 30.766 112.935 30.7367C113.405 30.7644 113.874 30.6656 114.292 30.4506C114.711 30.2356 115.064 29.9123 115.316 29.5144H115.38V30.4794H117.181V25.6866C117.181 23.4671 115.525 22.2287 113.386 22.2287ZM113.161 29.0801C112.549 29.0801 111.697 28.7746 111.697 28.0186C111.697 27.0537 112.758 26.6837 113.675 26.6837C114.271 26.6678 114.859 26.8123 115.38 27.1019C115.311 27.6441 115.049 28.1432 114.641 28.5069C114.233 28.8705 113.707 29.0742 113.161 29.0801ZM123.743 22.5021L121.604 27.9221H121.54L119.32 22.5021H117.31L120.639 30.0773L118.741 34.2911H120.687L125.818 22.5021H123.743ZM106.936 30.5002H108.802V17.9988H106.936V30.5002Z" fill="white"/>
<path d="M10.4353 8.03818C10.1074 8.43025 9.94182 8.93287 9.97251 9.44308V31.5592C9.94173 32.0694 10.1073 32.572 10.4353 32.9641L10.5093 33.0362L22.8983 20.6473V20.355L10.5093 7.96558L10.4353 8.03818Z" fill="url(#paint0_linear_104_329)"/>
<path d="M27.0277 24.7787L22.8983 20.6473V20.355L27.0287 16.2246L27.1218 16.2777L32.0146 19.0578C33.4122 19.8518 33.4122 21.151 32.0146 21.9455L27.1218 24.7256L27.0277 24.7787Z" fill="url(#paint1_linear_104_329)"/>
<path d="M27.1218 24.7251L22.8983 20.5012L10.4353 32.9641C10.7201 33.2153 11.0837 33.3589 11.4633 33.3701C11.8428 33.3813 12.2143 33.2594 12.5134 33.0255L27.1218 24.7251Z" fill="url(#paint2_linear_104_329)"/>
<path d="M27.1218 16.2771L12.5134 7.97666C12.2143 7.74275 11.8428 7.62084 11.4633 7.63206C11.0837 7.64327 10.7201 7.7869 10.4353 8.03806L22.8983 20.5011L27.1218 16.2771Z" fill="url(#paint3_linear_104_329)"/>
<path opacity="0.2" d="M27.0287 24.6321L12.5134 32.8794C12.2258 33.0983 11.8748 33.2178 11.5134 33.2197C11.152 33.2216 10.7997 33.1059 10.5098 32.8901L10.4353 32.9646L10.5093 33.0367L10.5098 33.0362C10.7997 33.2521 11.1519 33.3679 11.5134 33.366C11.8749 33.364 12.2259 33.2445 12.5134 33.0255L27.1218 24.7251L27.0287 24.6321Z" fill="black"/>
<path opacity="0.12" d="M10.4353 32.8185C10.1074 32.4264 9.94183 31.9238 9.97248 31.4136V31.5597C9.94181 32.0699 10.1074 32.5725 10.4353 32.9646L10.5098 32.8901L10.4353 32.8185Z" fill="black"/>
<path opacity="0.12" d="M32.0146 21.7988L27.0287 24.632L27.1218 24.725L32.0146 21.9449C32.3024 21.82 32.5515 21.6202 32.7358 21.3663C32.9202 21.1125 33.0331 20.8138 33.0629 20.5015C33.001 20.7843 32.8741 21.0488 32.6921 21.274C32.5101 21.4992 32.2781 21.6789 32.0146 21.7988Z" fill="black"/>
<path opacity="0.25" d="M12.5134 8.12334L32.0146 19.2033C32.2782 19.3232 32.5103 19.5029 32.6923 19.7282C32.8743 19.9535 33.0012 20.2182 33.0629 20.5011C33.0333 20.1887 32.9205 19.8899 32.7361 19.6359C32.5517 19.3819 32.3025 19.1821 32.0146 19.0572L12.5134 7.97724C11.1158 7.18314 9.97247 7.84274 9.97247 9.44354V9.58964C9.97247 7.98894 11.1158 7.32934 12.5134 8.12334Z" fill="white"/>
</g>
<defs>
<linearGradient id="paint0_linear_104_329" x1="21.7996" y1="9.20989" x2="5.01724" y2="25.9923" gradientUnits="userSpaceOnUse">
<stop stop-color="#00A0FF"/>
<stop offset="0.00657" stop-color="#00A1FF"/>
<stop offset="0.2601" stop-color="#00BEFF"/>
<stop offset="0.5122" stop-color="#00D2FF"/>
<stop offset="0.7604" stop-color="#00DFFF"/>
<stop offset="1" stop-color="#00E3FF"/>
</linearGradient>
<linearGradient id="paint1_linear_104_329" x1="33.8343" y1="20.5017" x2="9.6374" y2="20.5017" gradientUnits="userSpaceOnUse">
<stop stop-color="#FFE000"/>
<stop offset="0.4087" stop-color="#FFBD00"/>
<stop offset="0.7754" stop-color="#FFA500"/>
<stop offset="1" stop-color="#FF9C00"/>
</linearGradient>
<linearGradient id="paint2_linear_104_329" x1="24.8269" y1="22.7963" x2="2.06857" y2="45.5546" gradientUnits="userSpaceOnUse">
<stop stop-color="#FF3A44"/>
<stop offset="1" stop-color="#C31162"/>
</linearGradient>
<linearGradient id="paint3_linear_104_329" x1="7.29723" y1="0.676237" x2="17.4598" y2="10.8388" gradientUnits="userSpaceOnUse">
<stop stop-color="#32A071"/>
<stop offset="0.0685" stop-color="#2DA771"/>
<stop offset="0.4762" stop-color="#15CF74"/>
<stop offset="0.8009" stop-color="#06E775"/>
<stop offset="1" stop-color="#00F076"/>
</linearGradient>
<clipPath id="clip0_104_329">
<rect width="135" height="40.0002" fill="white" transform="translate(0 0.5)"/>
</clipPath>
</defs>
</svg>
