<svg width="135" height="41" viewBox="0 0 135 41" fill="none" xmlns="http://www.w3.org/2000/svg">
  <g clip-path="url(#clip0_104_350)">
  <path d="M124.249 0.499886H10.7566C10.3429 0.499886 9.9342 0.499886 9.5216 0.501886C9.17621 0.503886 8.83358 0.509696 8.48488 0.514586C7.72733 0.522488 6.97157 0.581562 6.22416 0.691296C5.4778 0.803418 4.75482 1.0148 4.07967 1.3183C3.40534 1.62436 2.7892 2.02205 2.25357 2.49696C1.71514 2.97052 1.26632 3.5179 0.924356 4.11805C0.581453 4.71699 0.343683 5.35882 0.219258 6.02137C0.0936495 6.68307 0.0260586 7.35241 0.0170916 8.02337C0.00662229 8.32997 0.00551669 8.63759 0 8.94423V32.0585C0.00551669 32.369 0.00662229 32.6698 0.0170916 32.9804C0.0260614 33.6513 0.0936522 34.3206 0.219258 34.9823C0.343339 35.6452 0.581124 36.2874 0.924356 36.8866C1.26616 37.4848 1.71505 38.03 2.25357 38.5009C2.78717 38.9779 3.40371 39.3759 4.07967 39.6796C4.75481 39.9839 5.47772 40.1965 6.22416 40.3104C6.9717 40.4192 7.72738 40.4783 8.48488 40.4872C8.83358 40.494 9.17621 40.4979 9.5216 40.4979C9.93419 40.4999 10.343 40.4999 10.7566 40.4999H124.249C124.655 40.4999 125.067 40.4999 125.472 40.4979C125.816 40.4979 126.169 40.494 126.512 40.4872C127.268 40.4788 128.023 40.4197 128.769 40.3104C129.518 40.1957 130.243 39.9831 130.921 39.6796C131.597 39.3757 132.213 38.9777 132.746 38.5009C133.283 38.0281 133.733 37.4833 134.079 36.8866C134.42 36.287 134.655 35.6448 134.777 34.9823C134.903 34.3205 134.973 33.6514 134.987 32.9804C134.991 32.6698 134.991 32.369 134.991 32.0585C135 31.6952 135 31.3339 135 30.9647V10.036C135 9.66981 135 9.30653 134.991 8.94423C134.991 8.63759 134.991 8.32997 134.987 8.02333C134.973 7.35231 134.903 6.68312 134.777 6.02133C134.655 5.35917 134.419 4.71739 134.079 4.11801C133.383 2.91508 132.278 1.93591 130.921 1.31821C130.243 1.01545 129.518 0.804126 128.769 0.691206C128.023 0.580989 127.269 0.521894 126.512 0.514446C126.169 0.509566 125.816 0.503706 125.472 0.501756C125.067 0.499756 124.655 0.499756 124.249 0.499756V0.499886Z" fill="#A6A6A6"/>
  <path d="M9.42998 39.6279C9.08566 39.6279 8.74966 39.624 8.40804 39.6172C7.70034 39.609 6.9943 39.5545 6.29571 39.454C5.6443 39.3547 5.01327 39.17 4.42342 38.906C3.83897 38.6442 3.30591 38.3009 2.84466 37.8892C2.37673 37.4824 1.98715 37.0106 1.69137 36.4924C1.39233 35.9709 1.18538 35.4119 1.07772 34.8349C0.961463 34.2149 0.898562 33.5879 0.889561 32.9595C0.882396 32.7485 0.873016 32.0462 0.873016 32.0462V8.9408C0.873016 8.9408 0.883007 8.24924 0.889618 8.04607C0.898236 7.41862 0.960772 6.79266 1.07668 6.17361C1.18454 5.59501 1.39165 5.03439 1.69085 4.51116C1.98554 3.99337 2.37296 3.52118 2.83807 3.11292C3.30266 2.70077 3.83742 2.35568 4.42286 2.09023C5.01136 1.82706 5.6412 1.64366 6.29129 1.54618C6.99218 1.44472 7.70067 1.38987 8.41082 1.38209L9.43053 1.36987H125.57L126.602 1.38258C127.306 1.38998 128.008 1.44434 128.702 1.5452C129.359 1.64391 129.995 1.82858 130.59 2.09316C131.763 2.62812 132.718 3.47448 133.32 4.5136C133.614 5.03322 133.818 5.58926 133.924 6.16287C134.042 6.787 134.107 7.41788 134.121 8.05047C134.124 8.33373 134.124 8.63799 134.124 8.9408C134.133 9.31587 134.133 9.67288 134.133 10.0328V30.9659C134.133 31.3292 134.133 31.6838 134.124 32.0413C134.124 32.3666 134.124 32.6645 134.12 32.9712C134.106 33.5925 134.042 34.2121 133.927 34.8251C133.821 35.4063 133.615 35.9696 133.316 36.4954C133.018 37.0079 132.631 37.4757 132.169 37.8814C131.707 38.2953 131.173 38.6406 130.587 38.9041C129.993 39.1702 129.358 39.3556 128.702 39.454C128.004 39.555 127.297 39.6096 126.59 39.6172C126.259 39.624 125.912 39.6279 125.576 39.6279L124.35 39.6299L9.42998 39.6279Z" fill="black"/>
  <path d="M32.7973 20.8006C32.8081 19.9659 33.0298 19.1475 33.4418 18.4216C33.8538 17.6956 34.4428 17.0857 35.1539 16.6485C34.7021 16.0034 34.1062 15.4724 33.4134 15.0979C32.7205 14.7233 31.9499 14.5155 31.1627 14.4908C29.4835 14.3146 27.8555 15.4957 26.9998 15.4957C26.1275 15.4957 24.81 14.5083 23.3913 14.5375C22.4736 14.5672 21.5793 14.834 20.7954 15.3121C20.0115 15.7901 19.3649 16.4631 18.9184 17.2654C16.9844 20.6138 18.427 25.5349 20.2796 28.2415C21.2065 29.5668 22.2898 31.0473 23.7072 30.9948C25.0943 30.9372 25.6123 30.1103 27.2866 30.1103C28.9454 30.1103 29.4314 30.9948 30.8776 30.9614C32.366 30.9372 33.3038 29.6302 34.1981 28.2923C34.8641 27.3479 35.3766 26.3042 35.7166 25.1997C34.8518 24.834 34.1139 24.2218 33.5948 23.4395C33.0757 22.6572 32.7983 21.7394 32.7973 20.8006Z" fill="white"/>
  <path d="M30.0657 12.7108C30.8772 11.7366 31.277 10.4844 31.1802 9.22021C29.9404 9.35044 28.7951 9.94299 27.9726 10.8798C27.5705 11.3375 27.2625 11.8699 27.0662 12.4467C26.87 13.0235 26.7893 13.6333 26.8289 14.2412C27.449 14.2476 28.0626 14.1132 28.6232 13.8481C29.1839 13.583 29.6771 13.1942 30.0657 12.7108Z" fill="white"/>
  <path d="M50.3307 27.6397H45.5973L44.4606 30.9961H42.4557L46.9391 18.5781H49.0221L53.5055 30.9961H51.4664L50.3307 27.6397ZM46.0875 26.0908H49.8395L47.9899 20.6436H47.9381L46.0875 26.0908Z" fill="white"/>
  <path d="M63.1881 26.4697C63.1881 29.2832 61.6823 31.0908 59.4098 31.0908C58.8341 31.1209 58.2616 30.9883 57.7578 30.7082C57.254 30.428 56.8393 30.0117 56.5612 29.5068H56.5182V33.9912H54.6598V21.9423H56.4586V23.4482H56.4928C56.7838 22.9457 57.2055 22.5316 57.7131 22.2497C58.2207 21.9679 58.7953 21.8289 59.3756 21.8476C61.6734 21.8476 63.1881 23.664 63.1881 26.4697ZM61.278 26.4697C61.278 24.6367 60.3307 23.4316 58.8854 23.4316C57.4654 23.4316 56.5104 24.6621 56.5104 26.4697C56.5104 28.2939 57.4654 29.5156 58.8854 29.5156C60.3307 29.5156 61.278 28.3193 61.278 26.4697Z" fill="white"/>
  <path d="M73.153 26.4697C73.153 29.2832 71.6471 31.0908 69.3746 31.0908C68.799 31.1209 68.2265 30.9883 67.7227 30.7081C67.2189 30.428 66.8042 30.0117 66.526 29.5068H66.483V33.9912H64.6246V21.9423H66.4234V23.4482H66.4576C66.7486 22.9457 67.1703 22.5315 67.6779 22.2497C68.1856 21.9679 68.7601 21.8289 69.3404 21.8476C71.6383 21.8476 73.153 23.664 73.153 26.4697ZM71.2428 26.4697C71.2428 24.6367 70.2955 23.4316 68.8502 23.4316C67.4303 23.4316 66.4752 24.6621 66.4752 26.4697C66.4752 28.2939 67.4303 29.5156 68.8502 29.5156C70.2955 29.5156 71.2428 28.3193 71.2428 26.4697H71.2428Z" fill="white"/>
  <path d="M79.7389 27.5362C79.8766 28.7676 81.0729 29.5762 82.7076 29.5762C84.2741 29.5762 85.401 28.7676 85.401 27.6572C85.401 26.6934 84.7213 26.1162 83.1119 25.7207L81.5026 25.333C79.2223 24.7822 78.1637 23.7158 78.1637 21.9854C78.1637 19.8428 80.0309 18.3711 82.6823 18.3711C85.3063 18.3711 87.1051 19.8428 87.1656 21.9854H85.2896C85.1774 20.7461 84.1529 19.9981 82.6559 19.9981C81.1588 19.9981 80.1344 20.7549 80.1344 21.8565C80.1344 22.7344 80.7887 23.251 82.3893 23.6465L83.7574 23.9824C86.3053 24.5849 87.3639 25.6084 87.3639 27.4248C87.3639 29.748 85.5133 31.2031 82.5699 31.2031C79.816 31.2031 77.9566 29.7822 77.8365 27.5361L79.7389 27.5362Z" fill="white"/>
  <path d="M91.3746 19.7998V21.9424H93.0963V23.4141H91.3746V28.4053C91.3746 29.1807 91.7194 29.542 92.4762 29.542C92.6806 29.5384 92.8846 29.5241 93.0875 29.499V30.9619C92.7472 31.0255 92.4014 31.0543 92.0553 31.0478C90.2223 31.0478 89.5074 30.3593 89.5074 28.6035V23.4141H88.191V21.9424H89.5074V19.7998H91.3746Z" fill="white"/>
  <path d="M94.0934 26.4697C94.0934 23.6211 95.7711 21.8311 98.3874 21.8311C101.012 21.8311 102.682 23.6211 102.682 26.4697C102.682 29.3262 101.021 31.1084 98.3874 31.1084C95.7545 31.1084 94.0934 29.3262 94.0934 26.4697ZM100.789 26.4697C100.789 24.5156 99.8932 23.3623 98.3874 23.3623C96.8815 23.3623 95.987 24.5244 95.987 26.4697C95.987 28.4316 96.8815 29.5762 98.3874 29.5762C99.8932 29.5762 100.789 28.4316 100.789 26.4697H100.789Z" fill="white"/>
  <path d="M104.214 21.9425H105.987V23.4835H106.03C106.15 23.0022 106.432 22.5769 106.828 22.279C107.225 21.9811 107.712 21.8288 108.208 21.8478C108.422 21.847 108.635 21.8703 108.844 21.9171V23.6554C108.574 23.5728 108.292 23.5348 108.009 23.5431C107.739 23.5321 107.47 23.5797 107.22 23.6826C106.971 23.7855 106.746 23.9412 106.562 24.1391C106.378 24.337 106.239 24.5724 106.155 24.8291C106.07 25.0857 106.042 25.3576 106.073 25.6261V30.9962H104.214L104.214 21.9425Z" fill="white"/>
  <path d="M117.413 28.3369C117.163 29.9805 115.562 31.1084 113.514 31.1084C110.88 31.1084 109.246 29.3437 109.246 26.5127C109.246 23.6729 110.889 21.8311 113.436 21.8311C115.941 21.8311 117.516 23.5518 117.516 26.2969V26.9336H111.122V27.0459C111.092 27.3791 111.134 27.7148 111.244 28.0306C111.354 28.3464 111.53 28.6352 111.761 28.8778C111.991 29.1203 112.27 29.3111 112.58 29.4374C112.89 29.5637 113.223 29.6226 113.557 29.6103C113.996 29.6515 114.437 29.5498 114.814 29.3203C115.191 29.0909 115.483 28.746 115.648 28.3369L117.413 28.3369ZM111.13 25.6348H115.657C115.674 25.3352 115.628 25.0354 115.523 24.7541C115.419 24.4729 115.257 24.2164 115.049 24.0006C114.84 23.7849 114.589 23.6145 114.312 23.5003C114.034 23.3861 113.736 23.3305 113.436 23.3369C113.134 23.3351 112.834 23.3933 112.553 23.508C112.273 23.6227 112.019 23.7918 111.805 24.0054C111.59 24.2191 111.42 24.473 111.305 24.7527C111.189 25.0323 111.13 25.3321 111.13 25.6348V25.6348Z" fill="white"/>
  <path d="M45.8546 9.23089C46.2442 9.20293 46.6352 9.26179 46.9993 9.40323C47.3634 9.54466 47.6916 9.76514 47.9602 10.0488C48.2288 10.3324 48.4311 10.6721 48.5525 11.0434C48.6739 11.4146 48.7114 11.8082 48.6622 12.1957C48.6622 14.102 47.632 15.1977 45.8546 15.1977H43.6993V9.23089H45.8546ZM44.6261 14.3539H45.7511C46.0295 14.3705 46.3081 14.3249 46.5666 14.2203C46.8252 14.1157 47.0571 13.9547 47.2456 13.7491C47.4341 13.5436 47.5744 13.2986 47.6563 13.032C47.7381 12.7653 47.7595 12.4838 47.7189 12.2079C47.7566 11.9331 47.733 11.6533 47.6499 11.3886C47.5668 11.124 47.4262 10.881 47.2381 10.677C47.05 10.4731 46.8192 10.3133 46.5621 10.2091C46.305 10.1048 46.0281 10.0587 45.7511 10.0741H44.6261V14.3539Z" fill="white"/>
  <path d="M49.7091 12.9443C49.6808 12.6484 49.7147 12.3498 49.8085 12.0677C49.9023 11.7857 50.0541 11.5263 50.254 11.3063C50.454 11.0864 50.6977 10.9106 50.9695 10.7903C51.2414 10.67 51.5354 10.6079 51.8326 10.6079C52.1299 10.6079 52.4239 10.67 52.6958 10.7903C52.9676 10.9106 53.2113 11.0864 53.4113 11.3063C53.6112 11.5263 53.763 11.7857 53.8568 12.0677C53.9506 12.3498 53.9845 12.6484 53.9562 12.9443C53.985 13.2405 53.9516 13.5395 53.858 13.822C53.7644 14.1045 53.6127 14.3644 53.4127 14.5848C53.2127 14.8052 52.9688 14.9813 52.6967 15.1019C52.4246 15.2224 52.1303 15.2847 51.8326 15.2847C51.535 15.2847 51.2407 15.2224 50.9686 15.1019C50.6964 14.9813 50.4525 14.8052 50.2526 14.5848C50.0526 14.3644 49.9009 14.1045 49.8073 13.822C49.7137 13.5395 49.6803 13.2405 49.7091 12.9443ZM53.0421 12.9443C53.0421 11.9682 52.6036 11.3974 51.8341 11.3974C51.0617 11.3974 50.6271 11.9682 50.6271 12.9443C50.6271 13.9282 51.0617 14.4946 51.8341 14.4946C52.6037 14.4946 53.0421 13.9243 53.0421 12.9443H53.0421Z" fill="white"/>
  <path d="M59.6017 15.1978H58.6798L57.7491 11.8813H57.6788L56.7521 15.1978H55.839L54.5978 10.6948H55.4991L56.3058 14.1308H56.3722L57.298 10.6948H58.1505L59.0763 14.1308H59.1466L59.9493 10.6948H60.838L59.6017 15.1978Z" fill="white"/>
  <path d="M61.882 10.6949H62.7374V11.4102H62.8038C62.9165 11.1533 63.1065 10.9379 63.3474 10.7941C63.5882 10.6503 63.868 10.5852 64.1476 10.6079C64.3667 10.5915 64.5867 10.6245 64.7913 10.7046C64.9959 10.7847 65.1798 10.9098 65.3295 11.0707C65.4792 11.2315 65.5908 11.424 65.656 11.6338C65.7212 11.8436 65.7383 12.0654 65.7062 12.2827V15.1977H64.8175V12.5059C64.8175 11.7823 64.5031 11.4224 63.8458 11.4224C63.6971 11.4155 63.5486 11.4408 63.4105 11.4966C63.2725 11.5525 63.1481 11.6375 63.046 11.7459C62.9439 11.8543 62.8664 11.9834 62.8188 12.1246C62.7713 12.2657 62.7549 12.4154 62.7706 12.5635V15.1978H61.882L61.882 10.6949Z" fill="white"/>
  <path d="M67.1222 8.93701H68.0109V15.1978H67.1222V8.93701Z" fill="white"/>
  <path d="M69.2462 12.9444C69.2179 12.6484 69.2518 12.3499 69.3456 12.0678C69.4395 11.7857 69.5913 11.5263 69.7913 11.3064C69.9912 11.0864 70.2349 10.9106 70.5068 10.7903C70.7787 10.67 71.0727 10.6079 71.37 10.6079C71.6673 10.6079 71.9613 10.67 72.2331 10.7903C72.505 10.9106 72.7487 11.0864 72.9487 11.3064C73.1487 11.5263 73.3004 11.7857 73.3943 12.0678C73.4882 12.3499 73.522 12.6484 73.4938 12.9444C73.5226 13.2406 73.4891 13.5396 73.3955 13.8221C73.3018 14.1046 73.1501 14.3645 72.9501 14.5849C72.7501 14.8053 72.5062 14.9814 72.2341 15.1019C71.9619 15.2225 71.6676 15.2847 71.37 15.2847C71.0723 15.2847 70.778 15.2225 70.5059 15.1019C70.2337 14.9814 69.9898 14.8053 69.7898 14.5849C69.5898 14.3645 69.4381 14.1046 69.3445 13.8221C69.2509 13.5396 69.2174 13.2406 69.2462 12.9444ZM72.5792 12.9444C72.5792 11.9683 72.1407 11.3975 71.3712 11.3975C70.5987 11.3975 70.1642 11.9683 70.1642 12.9444C70.1642 13.9283 70.5988 14.4947 71.3712 14.4947C72.1407 14.4947 72.5792 13.9244 72.5792 12.9444H72.5792Z" fill="white"/>
  <path d="M74.4293 13.9243C74.4293 13.1138 75.0328 12.6465 76.1041 12.5801L77.3239 12.5098V12.1211C77.3239 11.6455 77.0094 11.377 76.402 11.377C75.9059 11.377 75.5621 11.5591 75.4635 11.8774H74.6031C74.694 11.104 75.4215 10.6079 76.443 10.6079C77.5719 10.6079 78.2086 11.1699 78.2086 12.1211V15.1978H77.3531V14.5649H77.2828C77.1401 14.7919 76.9397 14.977 76.7021 15.1012C76.4645 15.2254 76.1981 15.2843 75.9303 15.2719C75.7413 15.2916 75.5502 15.2714 75.3694 15.2127C75.1887 15.154 75.0222 15.0581 74.8808 14.9311C74.7394 14.8042 74.6262 14.649 74.5484 14.4756C74.4706 14.3021 74.4301 14.1144 74.4293 13.9243ZM77.3239 13.5395V13.1631L76.2242 13.2334C75.6041 13.2749 75.3229 13.4858 75.3229 13.8828C75.3229 14.2881 75.6744 14.5239 76.1579 14.5239C76.2995 14.5382 76.4426 14.5239 76.5786 14.4819C76.7146 14.4398 76.8408 14.3707 76.9495 14.2789C77.0583 14.1871 77.1475 14.0743 77.2118 13.9473C77.2761 13.8202 77.3142 13.6816 77.3239 13.5395Z" fill="white"/>
  <path d="M79.3766 12.9444C79.3766 11.5215 80.108 10.6201 81.2457 10.6201C81.5271 10.6072 81.8064 10.6746 82.051 10.8145C82.2955 10.9544 82.4951 11.161 82.6266 11.4101H82.693V8.93701H83.5817V15.1978H82.7301V14.4863H82.6598C82.5182 14.7338 82.3116 14.9378 82.0623 15.0763C81.8131 15.2148 81.5307 15.2825 81.2457 15.272C80.1002 15.272 79.3766 14.3706 79.3766 12.9444ZM80.2946 12.9444C80.2946 13.8994 80.7448 14.4741 81.4977 14.4741C82.2467 14.4741 82.7096 13.8911 82.7096 12.9483C82.7096 12.0098 82.2419 11.4185 81.4977 11.4185C80.7496 11.4185 80.2946 11.9971 80.2946 12.9444H80.2946Z" fill="white"/>
  <path d="M87.2584 12.9443C87.2301 12.6484 87.264 12.3498 87.3578 12.0677C87.4516 11.7857 87.6034 11.5263 87.8034 11.3063C88.0033 11.0864 88.247 10.9106 88.5188 10.7903C88.7907 10.67 89.0847 10.6079 89.382 10.6079C89.6792 10.6079 89.9732 10.67 90.2451 10.7903C90.5169 10.9106 90.7606 11.0864 90.9606 11.3063C91.1605 11.5263 91.3123 11.7857 91.4061 12.0677C91.5 12.3498 91.5338 12.6484 91.5055 12.9443C91.5343 13.2405 91.5009 13.5395 91.4073 13.822C91.3137 14.1045 91.162 14.3644 90.962 14.5848C90.7621 14.8052 90.5182 14.9813 90.246 15.1019C89.9739 15.2224 89.6796 15.2847 89.382 15.2847C89.0843 15.2847 88.79 15.2224 88.5179 15.1019C88.2458 14.9813 88.0019 14.8052 87.8019 14.5848C87.6019 14.3644 87.4502 14.1045 87.3566 13.822C87.263 13.5395 87.2296 13.2405 87.2584 12.9443ZM90.5914 12.9443C90.5914 11.9682 90.1529 11.3974 89.3834 11.3974C88.611 11.3974 88.1764 11.9682 88.1764 12.9443C88.1764 13.9282 88.611 14.4946 89.3834 14.4946C90.153 14.4946 90.5914 13.9243 90.5914 12.9443Z" fill="white"/>
  <path d="M92.6979 10.6949H93.5533V11.4102H93.6198C93.7324 11.1533 93.9224 10.9379 94.1633 10.7941C94.4042 10.6503 94.6839 10.5852 94.9635 10.6079C95.1826 10.5915 95.4026 10.6245 95.6072 10.7046C95.8118 10.7847 95.9958 10.9098 96.1454 11.0707C96.2951 11.2315 96.4067 11.424 96.4719 11.6338C96.5371 11.8436 96.5543 12.0654 96.5221 12.2827V15.1977H95.6334V12.5059C95.6334 11.7823 95.319 11.4224 94.6618 11.4224C94.513 11.4155 94.3645 11.4408 94.2264 11.4966C94.0884 11.5525 93.964 11.6375 93.8619 11.7459C93.7598 11.8543 93.6823 11.9834 93.6348 12.1246C93.5872 12.2657 93.5708 12.4154 93.5865 12.5635V15.1978H92.6979V10.6949Z" fill="white"/>
  <path d="M101.544 9.57373V10.7153H102.519V11.4639H101.544V13.7793C101.544 14.251 101.738 14.4575 102.18 14.4575C102.294 14.4572 102.407 14.4503 102.519 14.437V15.1772C102.36 15.2058 102.198 15.221 102.036 15.2226C101.047 15.2226 100.654 14.875 100.654 14.0068V11.4638H99.9391V10.7153H100.654V9.57373H101.544Z" fill="white"/>
  <path d="M103.733 8.93701H104.614V11.4185H104.684C104.802 11.1591 104.998 10.9425 105.243 10.7982C105.489 10.6539 105.773 10.5888 106.057 10.6118C106.275 10.6 106.493 10.6364 106.695 10.7184C106.898 10.8004 107.079 10.9261 107.227 11.0864C107.376 11.2468 107.486 11.4378 107.552 11.646C107.618 11.8541 107.637 12.0742 107.608 12.2905V15.1978H106.718V12.5098C106.718 11.7905 106.383 11.4263 105.756 11.4263C105.603 11.4137 105.449 11.4347 105.305 11.4878C105.162 11.5408 105.031 11.6247 104.923 11.7334C104.815 11.8421 104.732 11.9732 104.68 12.1173C104.628 12.2614 104.608 12.4152 104.622 12.5679V15.1977H103.733L103.733 8.93701Z" fill="white"/>
  <path d="M112.79 13.982C112.669 14.3935 112.407 14.7495 112.051 14.9877C111.694 15.2258 111.265 15.331 110.839 15.2847C110.542 15.2926 110.247 15.2357 109.975 15.1182C109.702 15.0007 109.458 14.8253 109.26 14.6041C109.063 14.383 108.915 14.1214 108.828 13.8376C108.742 13.5538 108.718 13.2545 108.758 12.9605C108.719 12.6656 108.743 12.3657 108.83 12.081C108.916 11.7964 109.063 11.5336 109.26 11.3105C109.457 11.0874 109.699 10.9093 109.971 10.7881C110.243 10.6669 110.537 10.6054 110.835 10.608C112.088 10.608 112.843 11.464 112.843 12.878V13.1881H109.664V13.2379C109.65 13.4031 109.671 13.5695 109.725 13.7262C109.779 13.883 109.865 14.0267 109.978 14.1481C110.091 14.2696 110.228 14.3661 110.38 14.4315C110.533 14.4969 110.697 14.5297 110.863 14.5279C111.075 14.5534 111.291 14.5151 111.482 14.4179C111.672 14.3207 111.83 14.169 111.934 13.982L112.79 13.982ZM109.664 12.5308H111.938C111.949 12.3797 111.929 12.2279 111.878 12.0852C111.827 11.9425 111.747 11.812 111.642 11.7021C111.538 11.5923 111.412 11.5055 111.272 11.4473C111.132 11.3891 110.981 11.3609 110.83 11.3643C110.676 11.3624 110.523 11.3913 110.381 11.4492C110.239 11.5072 110.109 11.593 110.001 11.7017C109.892 11.8104 109.806 11.9398 109.748 12.0822C109.69 12.2246 109.662 12.3771 109.664 12.5308H109.664Z" fill="white"/>
  </g>
  <defs>
  <clipPath id="clip0_104_350">
  <rect width="135" height="40" fill="white" transform="translate(0 0.5)"/>
  </clipPath>
  </defs>
  </svg>
  